<?xml version="1.0" encoding="utf-8"?>
<!-- Generator: Adobe Illustrator 27.1.1, SVG Export Plug-In . SVG Version: 6.00 Build 0)  -->
<svg version="1.1" id="Layer_1" xmlns="http://www.w3.org/2000/svg" xmlns:xlink="http://www.w3.org/1999/xlink" x="0px" y="0px"
	 viewBox="0 0 360 360" style="enable-background:new 0 0 360 360;" xml:space="preserve">
<style type="text/css">
	.st0{fill:rgba(255,255,255,0);}
	.st1{fill:#3B4EF5;}
	.st2{fill:#040DF6;}
	.st3{fill:#0A169A;}
	.st4{fill:#9324E2;}
</style>
<rect class="st0" width="360" height="360"/>
<g>
	<g>
		<g>
			<path class="st1" d="M172.4,214.37l-85-51.98l-22.04,13.48c-3.25,1.99-3.25,5.23,0,7.22l107.04,65.46c3.25,1.99,8.56,1.99,11.8,0
				l107.04-65.46c3.25-1.99,3.25-5.23,0-7.22l-22.04-13.48l-84.99,51.98C180.96,216.35,175.65,216.35,172.4,214.37z"/>
			<path class="st2" d="M87.4,128.21l-22.04,13.48c-3.25,1.99-3.25,5.23,0,7.22l22.04,13.48l27.94-17.09L87.4,128.21z"/>
			<path class="st2" d="M291.24,141.69l-22.04-13.48l-27.94,17.09l27.94,17.09l22.04-13.48
				C294.49,146.92,294.49,143.67,291.24,141.69z"/>
			<path class="st3" d="M184.21,180.2c-3.25,1.99-8.56,1.99-11.8,0l-57.06-34.89L87.4,162.39l85,51.98c3.25,1.99,8.56,1.99,11.8,0
				l85-51.99l-27.94-17.09L184.21,180.2z"/>
			<path class="st4" d="M184.21,76.23l85,51.98l22.04-13.48c3.25-1.99,3.25-5.23,0-7.22L184.21,42.05c-3.25-1.99-8.56-1.99-11.8,0
				L65.37,107.51c-3.25,1.99-3.25,5.23,0,7.22l22.04,13.48l85-51.98C175.65,74.24,180.96,74.24,184.21,76.23z"/>
			<path class="st4" d="M172.4,110.4c3.25-1.99,8.56-1.99,11.8,0l57.06,34.89l27.94-17.09l-85-51.98c-3.25-1.99-8.56-1.99-11.8,0
				l-85,51.98l27.94,17.09L172.4,110.4z"/>
			<path class="st4" d="M172.4,110.4l-57.06,34.89l57.06,34.89c3.25,1.99,8.56,1.99,11.8,0l57.06-34.89l-57.06-34.89
				C180.96,108.42,175.65,108.42,172.4,110.4z"/>
		</g>
	</g>
	<g>
		<g>
			<rect x="91.73" y="283.94" class="st3" width="6.59" height="22.61"/>
			<path class="st3" d="M97.42,276.53c-0.3-0.3-0.66-0.55-1.06-0.73c-0.82-0.37-1.84-0.37-2.66,0c-0.4,0.18-0.77,0.43-1.08,0.73
				c-0.32,0.3-0.56,0.67-0.73,1.07c-0.17,0.41-0.26,0.85-0.26,1.33c0,0.94,0.33,1.76,0.99,2.41c0.66,0.66,1.47,0.99,2.41,0.99
				c0.47,0,0.92-0.09,1.32-0.26c0.41-0.17,0.77-0.42,1.07-0.74c0.3-0.31,0.54-0.68,0.73-1.08c0.18-0.41,0.28-0.86,0.28-1.33
				c0-0.47-0.09-0.92-0.28-1.33C97.97,277.19,97.73,276.83,97.42,276.53z"/>
			<path class="st3" d="M109.59,284.21c-1.43,0.63-2.68,1.49-3.71,2.58c-1.03,1.08-1.84,2.37-2.41,3.81
				c-0.57,1.44-0.86,3.01-0.86,4.65v11.33h6.64v-11.33c0-0.81,0.16-1.59,0.47-2.31c0.32-0.72,0.74-1.35,1.26-1.88
				c0.52-0.52,1.16-0.95,1.88-1.26c0.72-0.31,1.5-0.47,2.31-0.47h0.24v-6.06h-1.06C112.62,283.26,111.02,283.58,109.59,284.21z"/>
			<path class="st3" d="M153.18,286.79c-0.98-1.09-2.18-1.96-3.57-2.58c-1.39-0.63-2.97-0.94-4.7-0.94c-1.64,0-3.19,0.35-4.6,1.03
				c-1.32,0.64-2.47,1.51-3.41,2.58c-0.94-1.07-2.09-1.94-3.41-2.58c-1.41-0.68-2.96-1.03-4.6-1.03c-1.72,0-3.31,0.32-4.7,0.94
				c-1.39,0.63-2.59,1.5-3.57,2.58c-0.97,1.08-1.74,2.37-2.26,3.82c-0.53,1.44-0.79,3.01-0.79,4.64v11.33h6.64v-11.33
				c0-0.82,0.09-1.61,0.28-2.34c0.18-0.72,0.47-1.35,0.86-1.87c0.39-0.52,0.88-0.94,1.46-1.25c0.58-0.31,1.28-0.46,2.09-0.46
				c0.81,0,1.51,0.16,2.09,0.46c0.58,0.31,1.07,0.73,1.46,1.25c0.39,0.52,0.68,1.15,0.86,1.87c0.19,0.73,0.28,1.52,0.28,2.34v11.33
				h6.64v-11.33c0-0.83,0.09-1.61,0.28-2.34c0.18-0.72,0.47-1.35,0.86-1.87c0.39-0.52,0.88-0.94,1.46-1.25
				c0.58-0.31,1.28-0.46,2.09-0.46c0.81,0,1.51,0.16,2.09,0.46c0.58,0.31,1.07,0.73,1.46,1.25c0.39,0.52,0.68,1.15,0.86,1.87
				c0.19,0.73,0.28,1.52,0.28,2.34v11.33h6.64v-11.33c0-1.63-0.27-3.2-0.79-4.64C154.92,289.16,154.16,287.88,153.18,286.79z"/>
			<polygon class="st3" points="187.19,283.92 182.42,296.28 177.54,283.92 173.11,283.92 168.22,296.28 163.45,283.92
				156.23,283.92 165.59,306.58 170.84,306.58 175.32,295.2 179.8,306.58 185.05,306.58 194.41,283.92 			"/>
			<path class="st3" d="M215.73,286.78c-1.13-1.08-2.46-1.95-3.96-2.57c-1.5-0.63-3.13-0.94-4.86-0.94c-1.72,0-3.36,0.32-4.86,0.94
				c-1.5,0.62-2.83,1.49-3.96,2.57c-1.13,1.08-2.03,2.37-2.68,3.81c-0.65,1.45-0.99,3.01-0.99,4.66c0,1.64,0.33,3.21,0.99,4.66
				c0.65,1.44,1.55,2.73,2.68,3.81c1.12,1.08,2.46,1.95,3.96,2.57c1.5,0.63,3.13,0.94,4.86,0.94c1.72,0,3.36-0.32,4.86-0.94
				c1.5-0.62,2.83-1.49,3.96-2.57c1.13-1.08,2.03-2.37,2.68-3.81c0.65-1.45,0.99-3.02,0.99-4.66c0-1.64-0.33-3.21-0.99-4.66
				C217.76,289.15,216.86,287.87,215.73,286.78z M212.76,295.25c0,0.81-0.15,1.59-0.45,2.31c-0.3,0.72-0.72,1.35-1.24,1.87
				c-0.52,0.53-1.15,0.95-1.86,1.27c-1.41,0.63-3.16,0.63-4.57,0c-0.71-0.31-1.33-0.74-1.86-1.27c-0.52-0.52-0.94-1.15-1.24-1.87
				c-0.3-0.72-0.45-1.5-0.45-2.31c0-0.81,0.15-1.59,0.45-2.31c0.3-0.72,0.72-1.35,1.24-1.87c0.53-0.53,1.15-0.95,1.86-1.27
				c0.7-0.31,1.47-0.47,2.29-0.47c0.81,0,1.58,0.16,2.29,0.47c0.71,0.31,1.33,0.74,1.86,1.27c0.52,0.52,0.94,1.15,1.24,1.87
				C212.61,293.66,212.76,294.44,212.76,295.25z"/>
			<path class="st3" d="M229.16,284.21c-1.43,0.63-2.68,1.49-3.71,2.58c-1.03,1.08-1.84,2.37-2.41,3.81
				c-0.57,1.44-0.86,3.01-0.86,4.65v11.33h6.64v-11.33c0-0.81,0.16-1.59,0.47-2.31c0.32-0.72,0.74-1.35,1.26-1.88
				c0.52-0.52,1.16-0.95,1.88-1.26c0.72-0.31,1.5-0.47,2.31-0.47h0.24v-6.06h-1.06C232.19,283.26,230.59,283.58,229.16,284.21z"/>
			<polygon class="st3" points="260.18,283.26 252.15,283.26 244.97,292.01 244.97,275.47 238.34,275.47 238.34,306.58
				244.97,306.58 244.97,295.34 253.61,306.58 261.7,306.58 251.41,293.61 			"/>
			<path class="st3" d="M279.71,296.84c-0.4-0.75-0.92-1.4-1.56-1.92c-0.63-0.52-1.36-0.95-2.16-1.27c-0.8-0.32-1.63-0.53-2.46-0.61
				c-0.59-0.08-1.19-0.2-1.78-0.34c-0.58-0.14-1.12-0.33-1.6-0.56c-0.47-0.22-0.85-0.47-1.13-0.74c-0.25-0.24-0.38-0.49-0.38-0.75
				c0-0.65,0.22-1.09,0.68-1.33c0.5-0.27,1.07-0.4,1.72-0.4c0.64,0,1.21,0.15,1.7,0.46c0.46,0.28,0.69,0.84,0.69,1.69v0.24h6.64
				v-0.24c0-1.21-0.24-2.32-0.72-3.29c-0.48-0.97-1.14-1.8-1.98-2.46c-0.83-0.66-1.8-1.17-2.89-1.52c-1.09-0.35-2.24-0.52-3.44-0.52
				c-1.23,0-2.39,0.18-3.46,0.52c-1.08,0.35-2.04,0.85-2.87,1.5c-0.83,0.65-1.5,1.45-1.98,2.38c-0.48,0.93-0.72,1.99-0.72,3.15
				c0,0.92,0.25,1.78,0.76,2.57c0.49,0.77,1.15,1.47,1.95,2.06c0.79,0.59,1.73,1.08,2.77,1.47c1.04,0.39,2.11,0.66,3.19,0.79
				c0.89,0.13,1.63,0.4,2.2,0.78c0.54,0.37,0.8,0.76,0.8,1.2c0,0.63-0.26,1.08-0.81,1.4c-0.86,0.5-1.81,0.6-2.79,0.4
				c-0.31-0.06-0.59-0.17-0.84-0.34c-0.24-0.16-0.44-0.38-0.6-0.66c-0.16-0.28-0.24-0.63-0.24-1.05v-0.24h-6.64v0.24
				c0,1.24,0.26,2.35,0.77,3.32c0.51,0.96,1.2,1.78,2.06,2.44c0.85,0.66,1.85,1.17,2.95,1.52c1.1,0.35,2.28,0.52,3.5,0.52
				c1.2,0,2.37-0.18,3.48-0.52c1.12-0.35,2.12-0.86,2.97-1.52c0.86-0.66,1.55-1.48,2.06-2.44c0.51-0.96,0.77-2.08,0.77-3.32
				C280.31,298.48,280.11,297.6,279.71,296.84z"/>
			<path class="st3" d="M88.12,283.93h-4.18c-0.03-0.98,1.04-1.82,1.83-2.2c0.73-0.34,1.54-0.48,2.35-0.46c0,0,0-0.06,0-0.14v-5.61
				h-0.98c-2.66,0-5.5,0.87-7.42,2.78c-0.74,0.74-1.34,1.63-1.78,2.64c-0.44,1.01-0.66,2.09-0.66,3.22v22.42h6.64v-16.92h4.19v-5.29
				L88.12,283.93z"/>
		</g>
	</g>
</g>
</svg>
